<svg width="19" height="19" viewBox="0 0 19 19" fill="none" xmlns="http://www.w3.org/2000/svg">
<path d="M13.6445 10.9061C13.4472 11.0973 13.3566 11.3738 13.4015 11.6449L14.0786 15.392C14.1357 15.7096 14.0017 16.031 13.7359 16.2146C13.4754 16.405 13.1289 16.4278 12.8448 16.2755L9.47163 14.5162C9.35434 14.4537 9.2241 14.4202 9.09082 14.4164H8.88442C8.81283 14.4271 8.74277 14.4499 8.67879 14.485L5.30486 16.2527C5.13806 16.3365 4.94918 16.3662 4.76411 16.3365C4.31324 16.2512 4.0124 15.8216 4.08628 15.3684L4.76411 11.6213C4.80905 11.3479 4.71842 11.0699 4.52116 10.8757L1.77098 8.21C1.54098 7.98684 1.46101 7.65173 1.56611 7.34937C1.66817 7.04777 1.92864 6.82766 2.24318 6.77816L6.02839 6.22903C6.31627 6.19933 6.56913 6.02416 6.6986 5.76521L8.36653 2.34555C8.40613 2.26938 8.45716 2.19932 8.51885 2.13991L8.5874 2.0866C8.62319 2.04699 8.66432 2.01424 8.71002 1.98759L8.79303 1.95712L8.92251 1.90381H9.24314C9.52951 1.93351 9.7816 2.10488 9.91336 2.36078L11.6034 5.76521C11.7252 6.01426 11.9621 6.18714 12.2355 6.22903L16.0207 6.77816C16.3406 6.82385 16.6079 7.04472 16.7138 7.34937C16.8136 7.65478 16.7275 7.98989 16.4929 8.21L13.6445 10.9061Z" fill="#F6B76F" style="fill:#F6B76F;fill:color(display-p3 0.9647 0.7176 0.4353);fill-opacity:1;"/>
</svg>
